PathFileType	4	(x/y/z)	S10_M20_T35
DataRate	CameraRate	NumFrames	NumMarkers	Units	OrigDataRate	OrigDataStartFrame	OrigNumFrames
240	240	4	51	mm	240	282	563
Frame#	Time	Sternum			R.Acromium			L.Acromium			Top.Head			R.ASIS			L.ASIS			R.PSIS			L.PSIS			R.Great.Tro			L.Great.Tro			R.Iliac.Crest			L.Iliac.Crest			V.Sacral			R.Thigh.Upper.Post			R.Thigh.Lower.Ant			R.Thigh.Lower.Post			R.Thigh.Upper.Ant			R.Knee.Lat			R.Knee.Med			R.Shank.Upper.Post			R.Shank.Lower.Ant			R.Shank.Lower.Post			R.Shank.Upper.Ant			R.Ankle.Lat			R.Ankle.Med			R.Heel.Upper			R.Heel.Med			R.Heel.Lat			R.Toe.Lat			R.Toe.Med			R.Toe.Tip			L.Thigh.Upper.Post			L.Thigh.Lower.Ant			L.Thigh.Lower.Post			L.Thigh.Upper.Ant			L.Knee.Lat			L.Knee.Med			L.Shank.Upper.Post			L.Shank.Lower.Ant			L.Shank.Lower.Post			L.Shank.Upper.Ant			L.Ankle.Lat			L.Ankle.Med			L.Heel.Upper			L.Heel.Med			L.Heel.Lat			L.Toe.Lat			L.Toe.Med			L.Toe.Tip			Cervical.Spine			Back			
		X1	Y1	Z1	X2	Y2	Z2	X3	Y3	Z3	X4	Y4	Z4	X5	Y5	Z5	X6	Y6	Z6	X7	Y7	Z7	X8	Y8	Z8	X9	Y9	Z9	X10	Y10	Z10	X11	Y11	Z11	X12	Y12	Z12	X13	Y13	Z13	X14	Y14	Z14	X15	Y15	Z15	X16	Y16	Z16	X17	Y17	Z17	X18	Y18	Z18	X19	Y19	Z19	X20	Y20	Z20	X21	Y21	Z21	X22	Y22	Z22	X23	Y23	Z23	X24	Y24	Z24	X25	Y25	Z25	X26	Y26	Z26	X27	Y27	Z27	X28	Y28	Z28	X29	Y29	Z29	X30	Y30	Z30	X31	Y31	Z31	X32	Y32	Z32	X33	Y33	Z33	X34	Y34	Z34	X35	Y35	Z35	X36	Y36	Z36	X37	Y37	Z37	X38	Y38	Z38	X39	Y39	Z39	X40	Y40	Z40	X41	Y41	Z41	X42	Y42	Z42	X43	Y43	Z43	X44	Y44	Z44	X45	Y45	Z45	X46	Y46	Z46	X47	Y47	Z47	X48	Y48	Z48	X49	Y49	Z49	X50	Y50	Z50	X51	Y51	Z51	

282	1.1708	698.07	1289.6	351.15	593.5	1442	516.14	559.57	1468.1	208.66	524.32	1751.1	405.37	649.24	1009.7	465.66	636.03	1027.8	234.94	444.61	1041.6	390.91	446.03	1047.2	308.9	579.34	932.81	542.34	573.77	968.18	177	562.53	1095.4	514.83	566.78	1105.4	211.51	421.15	1011.9	353.41	576.46	721.02	521.55	618.56	641.37	473.15	559.36	634.15	507.21	637.88	730.1	483.21	538.14	511.09	462.77	511.05	522.74	338.23	441.07	295.4	466.42	494.55	226.67	436.76	431.61	222.17	456.89	509.74	301.63	444.67	429	113.22	427.77	430.44	124.78	349.02	358.09	68.35	389.59	363.67	39.823	363.05	365.74	45.914	424.4	541.53	41.139	449.81	557.92	42.321	337.12	621.95	56.826	373.92	656.44	699.6	166.64	756.99	659.26	184.08	699.69	615.85	184.06	722.61	741.92	167.2	757.27	553.91	188.32	782.08	547.67	318.06	650.16	367.33	181.03	694.3	265.59	182.64	635.62	290.98	184.95	709.7	341.01	178.74	634.21	159.48	186.07	660.03	163.94	268.83	568.62	139.6	234.56	574.61	105.56	266.1	566.52	109.99	201.98	732.62	63.763	153.41	768.01	63.892	255.92	819.22	70.456	207.47	499.66	1506.4	384.69	416.26	1297.8	372.85
283	1.175	702.68	1289.2	351.18	598.37	1441.8	516.01	563.82	1467.5	208.57	529.47	1750.8	404.8	653.54	1009.1	465.74	640.94	1027.6	235	449.16	1041.1	390.49	450.76	1046.9	308.49	583.18	932.27	542.27	578.83	968.07	176.83	566.79	1094.8	514.75	571.75	1105.2	211.45	425.83	1011.5	352.87	578.86	720.61	521.6	620.63	640.63	473.42	561.27	633.86	507.24	640.54	729.19	483.48	539.26	510.88	462.98	512.64	522.61	338.35	441.5	295.51	466.54	494.94	226.62	436.87	431.93	222.33	456.94	510.27	301.54	444.82	429.12	113.3	427.74	430.62	124.88	349	358.14	68.372	389.53	363.7	39.842	363.01	365.76	45.98	424.35	541.53	41.139	449.81	557.94	42.276	337.16	621.97	56.794	373.95	662.07	699.56	166.54	762.76	659.38	184.58	705.35	615.86	184.06	728.19	741.99	167.62	763.32	553.93	188.54	787.19	547.62	318.34	660.5	364.54	180.34	707.18	263.98	182.1	647.82	287.88	184.07	720.64	339.75	178.33	649.78	156.32	185.03	675.19	161.17	267.88	584.52	134.79	233.26	591.25	100.86	264.83	583.3	105.15	200.68	750.65	62.946	152.73	785.6	63.806	255.37	836.87	71.638	207.11	504.35	1506	384.67	420.86	1297.4	372.99
284	1.1792	707.29	1288.7	351.19	603.24	1441.6	515.87	568.08	1466.8	208.48	534.6	1750.4	404.22	657.86	1008.6	465.81	645.86	1027.3	235.05	453.72	1040.6	390.07	455.5	1046.5	308.08	587.04	931.72	542.19	583.89	967.88	176.65	571.07	1094.2	514.67	576.76	1104.9	211.37	430.52	1011	352.33	581.28	720.2	521.65	622.73	639.89	473.7	563.2	633.57	507.29	643.21	728.27	483.77	540.42	510.67	463.18	514.24	522.47	338.47	441.95	295.62	466.66	495.35	226.57	436.98	432.27	222.49	456.99	510.83	301.46	444.96	429.24	113.38	427.71	430.81	124.99	348.99	358.19	68.401	389.46	363.73	39.865	362.97	365.78	46.052	424.29	541.53	41.138	449.8	557.98	42.222	337.2	622	56.751	373.98	667.57	699.4	166.47	768.4	659.34	185.06	710.86	615.74	184.08	733.65	741.92	168.03	769.24	553.84	188.76	792.21	547.44	318.61	670.81	361.77	179.68	720.03	262.44	181.56	660.02	284.83	183.21	731.52	338.53	177.92	665.4	153.27	184	690.38	158.52	266.94	600.51	130.11	231.96	607.97	96.332	263.57	600.18	100.47	199.39	768.69	62.3	152.12	803.15	63.9	254.89	854.45	72.986	206.84	509.05	1505.5	384.62	425.46	1296.9	373.11
285	1.1833	711.92	1288.2	351.17	608.13	1441.3	515.7	572.37	1466	208.37	539.74	1750	403.62	662.19	1008	465.88	650.76	1027	235.1	458.29	1040.1	389.64	460.25	1046	307.66	590.9	931.15	542.12	588.94	967.6	176.48	575.36	1093.6	514.57	581.8	1104.5	211.29	435.23	1010.5	351.79	583.71	719.78	521.71	624.85	639.14	473.98	565.15	633.27	507.33	645.9	727.35	484.08	541.62	510.46	463.39	515.85	522.34	338.6	442.43	295.73	466.79	495.77	226.52	437.08	432.63	222.65	457.04	511.43	301.37	445.1	429.37	113.47	427.68	431	125.11	348.97	358.24	68.438	389.38	363.76	39.893	362.93	365.8	46.131	424.23	541.53	41.135	449.79	558.03	42.162	337.24	622.02	56.698	374	672.96	699.13	166.43	773.9	659.16	185.51	716.23	615.48	184.13	739	741.7	168.4	775.03	553.64	188.96	797.16	547.13	318.86	681.09	358.99	179.04	732.83	260.99	181.03	672.22	281.84	182.38	742.34	337.33	177.51	681.06	150.35	182.99	705.57	155.99	266.03	616.59	125.59	230.66	624.75	91.977	262.31	617.14	95.963	198.1	786.72	61.834	151.57	820.65	64.181	254.46	871.96	74.51	206.65	513.76	1505.1	384.56	430.08	1296.5	373.22
